<svg width="84" height="84" viewBox="0 0 84 84" fill="none" xmlns="http://www.w3.org/2000/svg">
<circle cx="41.9081" cy="42.0917" r="40.4081" fill="white" stroke="url(#paint0_linear_186_22)" stroke-width="3"/>
<mask id="path-2-outside-1_186_22" maskUnits="userSpaceOnUse" x="28.0776" y="18.291" width="28" height="48" fill="black">
<rect fill="white" x="28.0776" y="18.291" width="28" height="48"/>
<path d="M38.7649 52.0183V51.7626C38.7934 49.0495 39.0774 46.8904 39.6172 45.2853C40.157 43.6802 40.924 42.3805 41.9184 41.3862C42.9127 40.3919 44.1059 39.4757 45.4979 38.6376C46.336 38.1262 47.0888 37.5225 47.7564 36.8265C48.424 36.1163 48.9496 35.2995 49.3331 34.3762C49.7309 33.4529 49.9297 32.4302 49.9297 31.3081C49.9297 29.916 49.603 28.7086 48.9496 27.6859C48.2962 26.6632 47.4226 25.8748 46.3289 25.3208C45.2351 24.7669 44.0206 24.4899 42.6854 24.4899C41.5206 24.4899 40.3985 24.7314 39.3189 25.2143C38.2394 25.6973 37.3374 26.4572 36.613 27.4941C35.8885 28.5311 35.4695 29.8876 35.3559 31.5637H29.9865C30.1002 29.149 30.7252 27.0822 31.8615 25.3635C33.0121 23.6447 34.5249 22.3308 36.3999 21.4217C38.2891 20.5126 40.3843 20.0581 42.6854 20.0581C45.1854 20.0581 47.3587 20.5552 49.2053 21.5495C51.0661 22.5439 52.5007 23.9075 53.5093 25.6404C54.532 27.3734 55.0434 29.3478 55.0434 31.5637C55.0434 33.1262 54.8019 34.5396 54.3189 35.8038C53.8502 37.068 53.1684 38.1973 52.2735 39.1916C51.3928 40.1859 50.3274 41.0666 49.0774 41.8336C47.8274 42.6149 46.826 43.4387 46.0732 44.3052C45.3203 45.1575 44.7735 46.1731 44.4326 47.3521C44.0917 48.5311 43.907 50.0012 43.8786 51.7626V52.0183H38.7649ZM41.4922 64.6319C40.4411 64.6319 39.5391 64.2555 38.7863 63.5027C38.0334 62.7498 37.657 61.8478 37.657 60.7967C37.657 59.7456 38.0334 58.8436 38.7863 58.0907C39.5391 57.3379 40.4411 56.9615 41.4922 56.9615C42.5434 56.9615 43.4453 57.3379 44.1982 58.0907C44.951 58.8436 45.3274 59.7456 45.3274 60.7967C45.3274 61.4927 45.1499 62.1319 44.7948 62.7143C44.4539 63.2967 43.9922 63.7654 43.4098 64.1206C42.8417 64.4615 42.2024 64.6319 41.4922 64.6319Z"/>
</mask>
<path d="M38.7649 52.0183V51.7626C38.7934 49.0495 39.0774 46.8904 39.6172 45.2853C40.157 43.6802 40.924 42.3805 41.9184 41.3862C42.9127 40.3919 44.1059 39.4757 45.4979 38.6376C46.336 38.1262 47.0888 37.5225 47.7564 36.8265C48.424 36.1163 48.9496 35.2995 49.3331 34.3762C49.7309 33.4529 49.9297 32.4302 49.9297 31.3081C49.9297 29.916 49.603 28.7086 48.9496 27.6859C48.2962 26.6632 47.4226 25.8748 46.3289 25.3208C45.2351 24.7669 44.0206 24.4899 42.6854 24.4899C41.5206 24.4899 40.3985 24.7314 39.3189 25.2143C38.2394 25.6973 37.3374 26.4572 36.613 27.4941C35.8885 28.5311 35.4695 29.8876 35.3559 31.5637H29.9865C30.1002 29.149 30.7252 27.0822 31.8615 25.3635C33.0121 23.6447 34.5249 22.3308 36.3999 21.4217C38.2891 20.5126 40.3843 20.0581 42.6854 20.0581C45.1854 20.0581 47.3587 20.5552 49.2053 21.5495C51.0661 22.5439 52.5007 23.9075 53.5093 25.6404C54.532 27.3734 55.0434 29.3478 55.0434 31.5637C55.0434 33.1262 54.8019 34.5396 54.3189 35.8038C53.8502 37.068 53.1684 38.1973 52.2735 39.1916C51.3928 40.1859 50.3274 41.0666 49.0774 41.8336C47.8274 42.6149 46.826 43.4387 46.0732 44.3052C45.3203 45.1575 44.7735 46.1731 44.4326 47.3521C44.0917 48.5311 43.907 50.0012 43.8786 51.7626V52.0183H38.7649ZM41.4922 64.6319C40.4411 64.6319 39.5391 64.2555 38.7863 63.5027C38.0334 62.7498 37.657 61.8478 37.657 60.7967C37.657 59.7456 38.0334 58.8436 38.7863 58.0907C39.5391 57.3379 40.4411 56.9615 41.4922 56.9615C42.5434 56.9615 43.4453 57.3379 44.1982 58.0907C44.951 58.8436 45.3274 59.7456 45.3274 60.7967C45.3274 61.4927 45.1499 62.1319 44.7948 62.7143C44.4539 63.2967 43.9922 63.7654 43.4098 64.1206C42.8417 64.4615 42.2024 64.6319 41.4922 64.6319Z" fill="#132D49"/>
<path d="M38.7649 52.0183H37.7649V53.0183H38.7649V52.0183ZM38.7649 51.7626L37.7649 51.7521V51.7626H38.7649ZM39.6172 45.2853L38.6694 44.9666L39.6172 45.2853ZM41.9184 41.3862L42.6255 42.0933L42.6255 42.0933L41.9184 41.3862ZM45.4979 38.6376L46.0137 39.4943L46.0188 39.4912L45.4979 38.6376ZM47.7564 36.8265L48.4781 37.5188L48.4851 37.5114L47.7564 36.8265ZM49.3331 34.3762L48.4146 33.9806L48.4096 33.9926L49.3331 34.3762ZM39.3189 25.2143L38.9106 24.3015L39.3189 25.2143ZM36.613 27.4941L37.4327 28.0668L37.4327 28.0668L36.613 27.4941ZM35.3559 31.5637V32.5637H36.2904L36.3536 31.6314L35.3559 31.5637ZM29.9865 31.5637L28.9876 31.5167L28.9384 32.5637H29.9865V31.5637ZM31.8615 25.3635L31.0305 24.8072L31.0274 24.8119L31.8615 25.3635ZM36.3999 21.4217L35.9663 20.5206L35.9636 20.5219L36.3999 21.4217ZM49.2053 21.5495L48.7312 22.43L48.734 22.4315L49.2053 21.5495ZM53.5093 25.6404L52.645 26.1434L52.6481 26.1487L53.5093 25.6404ZM54.3189 35.8038L53.3847 35.4469L53.3813 35.4561L54.3189 35.8038ZM52.2735 39.1916L51.5302 38.5226L51.5249 38.5285L52.2735 39.1916ZM49.0774 41.8336L48.5544 40.9813L48.5474 40.9856L49.0774 41.8336ZM46.0732 44.3052L46.8227 44.9673L46.8281 44.9611L46.0732 44.3052ZM43.8786 51.7626L42.8787 51.7465L42.8786 51.7545V51.7626H43.8786ZM43.8786 52.0183V53.0183H44.8786V52.0183H43.8786ZM38.7863 63.5027L39.4934 62.7956H39.4934L38.7863 63.5027ZM38.7863 58.0907L39.4934 58.7978L39.4934 58.7978L38.7863 58.0907ZM44.1982 58.0907L44.9053 57.3836L44.1982 58.0907ZM44.7948 62.7143L43.941 62.1937L43.9363 62.2014L43.9318 62.2091L44.7948 62.7143ZM43.4098 64.1206L43.9243 64.9781L43.9304 64.9744L43.4098 64.1206ZM39.7649 52.0183V51.7626H37.7649V52.0183H39.7649ZM39.7649 51.7731C39.7928 49.1097 40.0726 47.0684 40.5651 45.6041L38.6694 44.9666C38.0823 46.7125 37.7939 48.9893 37.765 51.7521L39.7649 51.7731ZM40.5651 45.6041C41.0656 44.1157 41.7604 42.9584 42.6255 42.0933L41.2112 40.6791C40.0877 41.8026 39.2484 43.2447 38.6694 44.9666L40.5651 45.6041ZM42.6255 42.0933C43.5542 41.1645 44.6807 40.2968 46.0137 39.4943L44.9821 37.7809C43.531 38.6545 42.2711 39.6192 41.2112 40.6791L42.6255 42.0933ZM46.0188 39.4912C46.9291 38.9358 47.7497 38.2781 48.4781 37.5188L47.0347 36.1343C46.4279 36.767 45.7428 37.3167 44.977 37.784L46.0188 39.4912ZM48.4851 37.5114C49.2374 36.7111 49.8281 35.7916 50.2566 34.7598L48.4096 33.9926C48.0712 34.8075 47.6107 35.5215 47.0278 36.1416L48.4851 37.5114ZM50.2515 34.7719C50.709 33.7098 50.9297 32.5504 50.9297 31.3081H48.9297C48.9297 32.31 48.7527 33.196 48.4147 33.9806L50.2515 34.7719ZM50.9297 31.3081C50.9297 29.754 50.5629 28.3536 49.7923 27.1475L48.1069 28.2243C48.6432 29.0636 48.9297 30.0781 48.9297 31.3081H50.9297ZM49.7923 27.1475C49.0416 25.9724 48.0323 25.0627 46.7807 24.4287L45.877 26.2129C46.8129 26.687 47.5508 27.3539 48.1069 28.2243L49.7923 27.1475ZM46.7807 24.4287C45.5347 23.7977 44.1634 23.4899 42.6854 23.4899V25.4899C43.8779 25.4899 44.9355 25.7361 45.877 26.2129L46.7807 24.4287ZM42.6854 23.4899C41.3777 23.4899 40.1165 23.762 38.9106 24.3015L39.7273 26.1271C40.6804 25.7007 41.6636 25.4899 42.6854 25.4899V23.4899ZM38.9106 24.3015C37.654 24.8636 36.6139 25.7467 35.7932 26.9214L37.4327 28.0668C38.0609 27.1677 38.8247 26.5309 39.7273 26.1271L38.9106 24.3015ZM35.7932 26.9214C34.9358 28.1487 34.4802 29.6964 34.3581 31.4961L36.3536 31.6314C36.4588 30.0788 36.8412 28.9135 37.4327 28.0668L35.7932 26.9214ZM35.3559 30.5637H29.9865V32.5637H35.3559V30.5637ZM30.9854 31.6107C31.0921 29.3444 31.6748 27.4592 32.6957 25.915L31.0274 24.8119C29.7756 26.7053 29.1083 28.9535 28.9876 31.5167L30.9854 31.6107ZM32.6925 25.9197C33.7436 24.3497 35.1196 23.1538 36.8362 22.3215L35.9636 20.5219C33.9301 21.5078 32.2806 22.9398 31.0305 24.8072L32.6925 25.9197ZM36.8335 22.3228C38.5747 21.4849 40.5195 21.0581 42.6854 21.0581V19.0581C40.249 19.0581 38.0035 19.5403 35.9663 20.5206L36.8335 22.3228ZM42.6854 21.0581C45.0516 21.0581 47.0559 21.5279 48.7312 22.43L49.6794 20.6691C47.6615 19.5825 45.3192 19.0581 42.6854 19.0581V21.0581ZM48.734 22.4315C50.4401 23.3432 51.7347 24.5794 52.645 26.1434L54.3736 25.1375C53.2668 23.2356 51.692 21.7445 49.6766 20.6676L48.734 22.4315ZM52.6481 26.1487C53.5709 27.7124 54.0434 29.508 54.0434 31.5637H56.0434C56.0434 29.1877 55.4931 27.0344 54.3705 25.1322L52.6481 26.1487ZM54.0434 31.5637C54.0434 33.0229 53.818 34.3128 53.3848 35.4469L55.2531 36.1607C55.7857 34.7664 56.0434 33.2296 56.0434 31.5637H54.0434ZM53.3813 35.4561C52.9561 36.6029 52.3399 37.6229 51.5302 38.5226L53.0168 39.8605C53.9968 38.7716 54.7442 37.5331 55.2565 36.1515L53.3813 35.4561ZM51.5249 38.5285C50.7161 39.4417 49.729 40.2606 48.5544 40.9813L49.6005 42.686C50.9259 41.8726 52.0695 40.9301 53.0221 39.8546L51.5249 38.5285ZM48.5474 40.9856C47.236 41.8053 46.1516 42.6903 45.3183 43.6493L46.8281 44.9611C47.5005 44.1872 48.4189 43.4245 49.6074 42.6816L48.5474 40.9856ZM45.3237 43.6432C44.4653 44.6149 43.8506 45.7647 43.4719 47.0743L45.3932 47.6299C45.6963 46.5816 46.1754 45.7 46.8227 44.9673L45.3237 43.6432ZM43.4719 47.0743C43.0983 48.3665 42.908 49.9315 42.8787 51.7465L44.8785 51.7787C44.906 50.071 45.085 48.6957 45.3932 47.6299L43.4719 47.0743ZM42.8786 51.7626V52.0183H44.8786V51.7626H42.8786ZM43.8786 51.0183H38.7649V53.0183H43.8786V51.0183ZM41.4922 63.6319C40.7101 63.6319 40.0614 63.3636 39.4934 62.7956L38.0791 64.2098C39.0168 65.1474 40.1721 65.6319 41.4922 65.6319V63.6319ZM39.4934 62.7956C38.9253 62.2275 38.657 61.5788 38.657 60.7967H36.657C36.657 62.1169 37.1415 63.2721 38.0791 64.2098L39.4934 62.7956ZM38.657 60.7967C38.657 60.0146 38.9253 59.3659 39.4934 58.7978L38.0791 57.3836C37.1415 58.3213 36.657 59.4765 36.657 60.7967H38.657ZM39.4934 58.7978C40.0614 58.2298 40.7101 57.9615 41.4922 57.9615V55.9615C40.1721 55.9615 39.0168 56.446 38.0791 57.3836L39.4934 58.7978ZM41.4922 57.9615C42.2743 57.9615 42.9231 58.2298 43.4911 58.7978L44.9053 57.3836C43.9676 56.446 42.8124 55.9615 41.4922 55.9615V57.9615ZM43.4911 58.7978C44.0591 59.3659 44.3274 60.0146 44.3274 60.7967H46.3274C46.3274 59.4765 45.843 58.3213 44.9053 57.3836L43.4911 58.7978ZM44.3274 60.7967C44.3274 61.313 44.1984 61.7715 43.941 62.1937L45.6486 63.2349C46.1013 62.4924 46.3274 61.6724 46.3274 60.7967H44.3274ZM43.9318 62.2091C43.6753 62.6472 43.332 62.9968 42.8892 63.2668L43.9304 64.9744C44.6524 64.5341 45.2324 63.9462 45.6578 63.2195L43.9318 62.2091ZM42.8953 63.2631C42.4938 63.504 42.0347 63.6319 41.4922 63.6319V65.6319C42.3702 65.6319 43.1895 65.4189 43.9243 64.9781L42.8953 63.2631Z" fill="url(#paint1_linear_186_22)" mask="url(#path-2-outside-1_186_22)"/>
<defs>
<linearGradient id="paint0_linear_186_22" x1="41.9081" y1="0.183594" x2="41.9081" y2="83.9998" gradientUnits="userSpaceOnUse">
<stop stop-color="#2BD968"/>
<stop offset="1" stop-color="#132D49"/>
</linearGradient>
<linearGradient id="paint1_linear_186_22" x1="42.8053" y1="13.291" x2="42.8053" y2="70.801" gradientUnits="userSpaceOnUse">
<stop stop-color="#2BD968"/>
<stop offset="1" stop-color="#132D49"/>
</linearGradient>
</defs>
</svg>
